<?xml version="1.0" encoding="UTF-8"?>
<svg version="1.1" xmlns="http://www.w3.org/2000/svg" width="130" height="130">
<path d="M0 0 C2.61338514 1.09685873 4.63873329 2.39232905 7 4 C7 4.66 7 5.32 7 6 C7.66 6 8.32 6 9 6 C9.36738281 7.41152344 9.36738281 7.41152344 9.7421875 8.8515625 C12.16197456 17.35138775 12.16197456 17.35138775 18.125 23.5625 C25.12377038 26.96338398 32.87550651 28.58092932 40.40966797 30.37353516 C44.79037677 31.43299781 49.14349439 32.59578386 53.5 33.75 C54.30687256 33.96084229 55.11374512 34.17168457 55.94506836 34.38891602 C58.99428269 35.18748079 62.0087712 36.00292373 65 37 C64.98428955 36.34515625 64.9685791 35.6903125 64.95239258 35.015625 C64.88952066 32.01050669 64.85084512 29.00552737 64.8125 26 C64.78736328 24.97003906 64.76222656 23.94007812 64.73632812 22.87890625 C64.67329322 16.28125333 64.70164988 9.61767359 69.41723633 4.44555664 C73.99321289 0.4469592 77.8547043 -0.35740644 83.71875 -0.28125 C88.47521811 0.30516388 91.22375322 3.13983465 94.3125 6.5625 C96.88963629 10.28503019 97.13705275 13.1549848 97.20532227 17.57299805 C97.2352401 19.28443245 97.2352401 19.28443245 97.26576233 21.03044128 C97.28247482 22.26176285 97.29918732 23.49308441 97.31640625 24.76171875 C97.33718735 26.02264847 97.35796844 27.28357819 97.37937927 28.5827179 C97.43372122 31.93145458 97.48396166 35.28020205 97.53222656 38.62902832 C97.58250357 42.04766229 97.63815724 45.46620826 97.69335938 48.88476562 C97.800535 55.58977362 97.90230512 62.29484753 98 69 C99.98 69.495 99.98 69.495 102 70 C102 74.62 102 79.24 102 84 C100.35 84 98.7 84 97 84 C96.773125 84.721875 96.54625 85.44375 96.3125 86.1875 C94.73080282 89.57685109 92.79885498 91.5424688 90 94 C84.60080143 95.79973286 79.06442735 95.70112627 73.6875 93.875 C68.51285953 90.26478572 65.36885222 86.15983499 64 80 C63.83096719 76.93267287 63.68752439 73.87647446 63.63671875 70.8046875 C63.21772573 67.84999348 63.21772573 67.84999348 60.890625 65.78515625 C50.56050735 59.40561062 36.6520043 57.6634402 24.93359375 55.11328125 C20.90016649 54.22785712 16.95437857 53.18794089 13 52 C12.11932792 55.74307113 11.9166641 59.12544375 12.0078125 62.96484375 C12.02457031 64.09470703 12.04132812 65.22457031 12.05859375 66.38867188 C12.1027945 68.7508117 12.15485346 71.1128178 12.21484375 73.47460938 C12.34804745 84.10063213 12.34804745 84.10063213 9 89 C8.34 89 7.68 89 7 89 C6.7525 89.61875 6.505 90.2375 6.25 90.875 C4.73664678 93.44770048 3.7391982 93.9004627 1 95 C-5.7296634 95.9842705 -11.4638078 95.0227008 -17 91 C-20.07890903 87.72865915 -20.13730691 85.06972451 -20.125 80.75 C-20.08632813 79.87859375 -20.04765625 79.0071875 -20.0078125 78.109375 C-20.00523438 77.41328125 -20.00265625 76.7171875 -20 76 C-20.33 75.67 -20.66 75.34 -21 75 C-21.10963173 73.1403938 -21.14910304 71.27661455 -21.16113281 69.41381836 C-21.17074036 68.21844955 -21.1803479 67.02308075 -21.19024658 65.79148865 C-21.19449646 64.48744583 -21.19874634 63.18340302 -21.203125 61.83984375 C-21.20887743 60.49280292 -21.21463515 59.1457621 -21.22039795 57.79872131 C-21.230923 54.96647764 -21.23675433 52.13426245 -21.24023438 49.30200195 C-21.2456917 45.68965953 -21.26965312 42.07769931 -21.29820633 38.46547604 C-21.31693309 35.67803393 -21.32204383 32.89068151 -21.32357025 30.10318184 C-21.32803614 28.1291224 -21.34664446 26.15511114 -21.36553955 24.18113708 C-21.34885414 17.41248809 -21.04539152 12.09852865 -18 6 C-12.5969007 0.7354417 -7.43199019 -1.07240127 0 0 Z " fill="#FAFAFA" transform="translate(22,31)"/>
<path d="M0 0 C2.6109279 1.10059187 4.63937626 2.39276682 7 4 C7 4.66 7 5.32 7 6 C7.66 6 8.32 6 9 6 C9.36738281 7.41152344 9.36738281 7.41152344 9.7421875 8.8515625 C12.16197456 17.35138775 12.16197456 17.35138775 18.125 23.5625 C25.12377038 26.96338398 32.87550651 28.58092932 40.40966797 30.37353516 C44.79037677 31.43299781 49.14349439 32.59578386 53.5 33.75 C54.30687256 33.96084229 55.11374512 34.17168457 55.94506836 34.38891602 C58.99428269 35.18748079 62.0087712 36.00292373 65 37 C64.98428955 36.34515625 64.9685791 35.6903125 64.95239258 35.015625 C64.88952066 32.01050669 64.85084512 29.00552737 64.8125 26 C64.78736328 24.97003906 64.76222656 23.94007812 64.73632812 22.87890625 C64.67329322 16.28125333 64.70164988 9.61767359 69.41723633 4.44555664 C73.99321289 0.4469592 77.8547043 -0.35740644 83.71875 -0.28125 C88.47521811 0.30516388 91.22375322 3.13983465 94.3125 6.5625 C96.88963629 10.28503019 97.13705275 13.1549848 97.20532227 17.57299805 C97.2352401 19.28443245 97.2352401 19.28443245 97.26576233 21.03044128 C97.28247482 22.26176285 97.29918732 23.49308441 97.31640625 24.76171875 C97.33718735 26.02264847 97.35796844 27.28357819 97.37937927 28.5827179 C97.43372122 31.93145458 97.48396166 35.28020205 97.53222656 38.62902832 C97.58250357 42.04766229 97.63815724 45.46620826 97.69335938 48.88476562 C97.800535 55.58977362 97.90230512 62.29484753 98 69 C99.98 69.495 99.98 69.495 102 70 C102 74.62 102 79.24 102 84 C100.35 84 98.7 84 97 84 C96.773125 84.721875 96.54625 85.44375 96.3125 86.1875 C94.73080282 89.57685109 92.79885498 91.5424688 90 94 C84.60080143 95.79973286 79.06442735 95.70112627 73.6875 93.875 C68.51285953 90.26478572 65.36885222 86.15983499 64 80 C63.88751313 77.95877483 63.78414978 75.91703631 63.6875 73.875 C63.37999758 69.35690855 63.37999758 69.35690855 61.1875 65.5 C56.27946674 63.19033729 51.190171 61.55622352 46 60 C46 59.67 46 59.34 46 59 C48.64 59 51.28 59 54 59 C54 59.66 54 60.32 54 61 C55.11375 61.185625 55.11375 61.185625 56.25 61.375 C60.22100923 62.2775021 63.61495179 63.59278828 66 67 C66.495 70.96 66.495 70.96 67 75 C76.24 75 85.48 75 95 75 C95.06298296 67.02682397 95.12307906 59.05455355 95.15525055 51.0813446 C95.17106515 47.36808585 95.19218421 43.65503392 95.22631836 39.94189453 C95.25901319 36.36275825 95.27687419 32.78382202 95.28463173 29.20454788 C95.29015716 27.84184243 95.30094704 26.47914741 95.31719017 25.11652756 C95.33909636 23.20198069 95.34022653 21.28723075 95.34057617 19.37255859 C95.34723801 18.28445892 95.35389984 17.19635925 95.36076355 16.07528687 C94.86191988 11.82295206 93.36346783 8.45121576 90.421875 5.3203125 C87.42006053 3.17415542 85.21840363 2.0476517 81.5625 1.25 C75.42016955 2.5431222 71.40948826 6.88576761 68 12 C67.63072954 15.0042707 67.63072954 15.0042707 67.5859375 18.41796875 C67.54726562 19.67158203 67.50859375 20.92519531 67.46875 22.21679688 C67.4378125 23.52712891 67.406875 24.83746094 67.375 26.1875 C67.33680662 27.5228116 67.29775409 28.85809892 67.2578125 30.19335938 C67.16340847 33.46209888 67.07782983 36.73083064 67 40 C66.269021 39.79938965 65.53804199 39.5987793 64.78491211 39.39208984 C63.81303955 39.12605957 62.84116699 38.8600293 61.83984375 38.5859375 C60.88198975 38.32345215 59.92413574 38.0609668 58.93725586 37.79052734 C56.15197495 37.04090224 53.36062903 36.3249356 50.5625 35.625 C49.57636719 35.37621094 48.59023437 35.12742188 47.57421875 34.87109375 C44.76883828 34.18737807 41.96198297 33.54054003 39.14453125 32.91015625 C28.07087968 30.37475036 17.7607776 27.94575655 10 19 C9.27734375 16.81640625 9.27734375 16.81640625 8.9375 14.5625 C8.22922519 10.81788185 7.40629153 8.05413925 5 5 C1.38219548 2.53955 -1.97417952 2.79581814 -6.25 2.875 C-7.51328125 2.89304688 -8.7765625 2.91109375 -10.078125 2.9296875 C-11.04234375 2.95289063 -12.0065625 2.97609375 -13 3 C-8.76721031 -0.60217091 -5.39370857 -0.85973543 0 0 Z " fill="#333337" transform="translate(22,31)"/>
<path d="M0 0 C6.3244195 5.09920908 9.60340042 10.36474915 10.5546875 18.45703125 C10.65370684 19.78929151 10.74290483 21.12252568 10.8046875 22.45703125 C7.8046875 24.45703125 7.8046875 24.45703125 4.6171875 24.08203125 C3.6890625 23.87578125 2.7609375 23.66953125 1.8046875 23.45703125 C1.5571875 22.44640625 1.3096875 21.43578125 1.0546875 20.39453125 C-0.42344442 15.29859394 -2.33917114 10.84913727 -6.6953125 7.58203125 C-12.78818563 4.84023834 -19.19878949 4.38280602 -25.5078125 6.64453125 C-30.21276541 9.81763903 -32.18871504 12.71592616 -33.3828125 18.20703125 C-33.58970703 19.37492187 -33.58970703 19.37492187 -33.80078125 20.56640625 C-34.1953125 22.45703125 -34.1953125 22.45703125 -35.1953125 23.45703125 C-36.88140216 23.52908636 -38.57031909 23.54089193 -40.2578125 23.51953125 C-41.17691406 23.51050781 -42.09601562 23.50148438 -43.04296875 23.4921875 C-43.75324219 23.48058594 -44.46351562 23.46898438 -45.1953125 23.45703125 C-44.7994617 14.90665395 -42.36072594 7.62244469 -36.1953125 1.45703125 C-24.25188327 -6.73160752 -12.38105815 -8.70198927 0 0 Z " fill="#D3D3D4" transform="translate(77.1953125,5.54296875)"/>
<path d="M0 0 C0.66 0.33 1.32 0.66 2 1 C1.319375 1.5878125 1.319375 1.5878125 0.625 2.1875 C-2.90837467 6.12857175 -3.24762908 10.21654431 -3.22705078 15.35083008 C-3.22689972 16.6117598 -3.22674866 17.87268951 -3.22659302 19.17182922 C-3.21638136 20.53773152 -3.2059494 21.90363219 -3.1953125 23.26953125 C-3.19157941 24.67485859 -3.18873383 26.08018853 -3.18673706 27.48551941 C-3.17912389 31.17299668 -3.15949553 34.86031482 -3.1373291 38.54772949 C-3.11682059 42.31500089 -3.10772467 46.08229816 -3.09765625 49.84960938 C-3.07624723 57.23315364 -3.04108422 64.61653419 -3 72 C5.91 72 14.82 72 24 72 C24.33 63.42 24.66 54.84 25 46 C26.32 46.66 27.64 47.32 29 48 C28.34 48.66 27.68 49.32 27 50 C26.77088548 53.0131953 26.77088548 53.0131953 26.91015625 56.546875 C26.93059307 57.88020446 26.95076689 59.21353796 26.97070312 60.546875 C27.01404064 62.64470431 27.06230031 64.7422655 27.11645508 66.83984375 C27.16507853 68.86717827 27.19473088 70.89416452 27.22265625 72.921875 C27.25109619 74.13456055 27.27953613 75.34724609 27.30883789 76.59667969 C26.96739528 80.35929632 25.884931 82.75594921 24 86 C23.34 86 22.68 86 22 86 C21.7525 86.61875 21.505 87.2375 21.25 87.875 C19.73664678 90.44770048 18.7391982 90.9004627 16 92 C9.2703366 92.9842705 3.5361922 92.0227008 -2 88 C-5.07890903 84.72865915 -5.13730691 82.06972451 -5.125 77.75 C-5.08632812 76.87859375 -5.04765625 76.0071875 -5.0078125 75.109375 C-5.00523438 74.41328125 -5.00265625 73.7171875 -5 73 C-5.33 72.67 -5.66 72.34 -6 72 C-6.10963173 70.1403938 -6.14910304 68.27661455 -6.16113281 66.41381836 C-6.17074036 65.21844955 -6.1803479 64.02308075 -6.19024658 62.79148865 C-6.19449646 61.48744583 -6.19874634 60.18340302 -6.203125 58.83984375 C-6.20887743 57.49280292 -6.21463515 56.1457621 -6.22039795 54.79872131 C-6.230923 51.96647764 -6.23675433 49.13426245 -6.24023438 46.30200195 C-6.2456917 42.68965953 -6.26965312 39.07769931 -6.29820633 35.46547604 C-6.31693309 32.67803393 -6.32204383 29.89068151 -6.32357025 27.10318184 C-6.32803614 25.1291224 -6.34664446 23.15511114 -6.36553955 21.18113708 C-6.32945302 6.54217546 -6.32945302 6.54217546 -1.39581299 1.2933197 C-0.9351947 0.8665242 -0.47457642 0.4397287 0 0 Z " fill="#202023" transform="translate(7,34)"/>
<path d="M0 0 C2.6109279 1.10059187 4.63937626 2.39276682 7 4 C7 4.66 7 5.32 7 6 C7.66 6 8.32 6 9 6 C9.36738281 7.41152344 9.36738281 7.41152344 9.7421875 8.8515625 C12.16197456 17.35138775 12.16197456 17.35138775 18.125 23.5625 C25.12377038 26.96338398 32.87550651 28.58092932 40.40966797 30.37353516 C44.79037677 31.43299781 49.14349439 32.59578386 53.5 33.75 C54.30687256 33.96084229 55.11374512 34.17168457 55.94506836 34.38891602 C58.99428269 35.18748079 62.0087712 36.00292373 65 37 C64.98428955 36.34515625 64.9685791 35.6903125 64.95239258 35.015625 C64.88952066 32.01050669 64.85084512 29.00552737 64.8125 26 C64.78736328 24.97003906 64.76222656 23.94007812 64.73632812 22.87890625 C64.67329322 16.28125333 64.70164988 9.61767359 69.41723633 4.44555664 C73.99321289 0.4469592 77.8547043 -0.35740644 83.71875 -0.28125 C88.47521811 0.30516388 91.22375322 3.13983465 94.3125 6.5625 C97.00679162 10.45425457 97.12289616 13.41219527 97.11352539 18.03198242 C97.11341209 19.89357246 97.11341209 19.89357246 97.11329651 21.79277039 C97.10818991 23.14700358 97.10297391 24.50123637 97.09765625 25.85546875 C97.09579083 27.24123585 97.09436751 28.62700361 97.09336853 30.01277161 C97.0895531 33.6574791 97.07973113 37.30214665 97.06866455 40.94683838 C97.0584295 44.66702738 97.05386642 48.38722285 97.04882812 52.10742188 C97.03810798 59.40496611 97.02104325 66.70247746 97 74 C96.67 74 96.34 74 96 74 C95.99413376 73.24911102 95.98826752 72.49822205 95.98222351 71.72457886 C95.92421492 64.63305419 95.85209181 57.54184436 95.76428509 50.45063591 C95.71964043 46.80532943 95.68037175 43.16013319 95.65356445 39.51464844 C95.62747189 35.99365763 95.58702858 32.47309237 95.53681374 28.95236588 C95.51211642 26.96173999 95.50211553 24.97094925 95.49235535 22.98019409 C95.47256119 21.75938141 95.45276703 20.53856873 95.43237305 19.28076172 C95.42126999 18.21042694 95.41016693 17.14009216 95.39872742 16.037323 C94.84546905 11.8228539 93.34373357 8.43021147 90.421875 5.3203125 C87.42006053 3.17415542 85.21840363 2.0476517 81.5625 1.25 C75.42016955 2.5431222 71.40948826 6.88576761 68 12 C67.63072954 15.0042707 67.63072954 15.0042707 67.5859375 18.41796875 C67.54726562 19.67158203 67.50859375 20.92519531 67.46875 22.21679688 C67.4378125 23.52712891 67.406875 24.83746094 67.375 26.1875 C67.33680662 27.5228116 67.29775409 28.85809892 67.2578125 30.19335938 C67.16340847 33.46209888 67.07782983 36.73083064 67 40 C66.269021 39.79938965 65.53804199 39.5987793 64.78491211 39.39208984 C63.81303955 39.12605957 62.84116699 38.8600293 61.83984375 38.5859375 C60.88198975 38.32345215 59.92413574 38.0609668 58.93725586 37.79052734 C56.15197495 37.04090224 53.36062903 36.3249356 50.5625 35.625 C49.57636719 35.37621094 48.59023437 35.12742188 47.57421875 34.87109375 C44.76883828 34.18737807 41.96198297 33.54054003 39.14453125 32.91015625 C28.07087968 30.37475036 17.7607776 27.94575655 10 19 C9.27734375 16.81640625 9.27734375 16.81640625 8.9375 14.5625 C8.22922519 10.81788185 7.40629153 8.05413925 5 5 C1.38219548 2.53955 -1.97417952 2.79581814 -6.25 2.875 C-7.51328125 2.89304688 -8.7765625 2.91109375 -10.078125 2.9296875 C-11.04234375 2.95289063 -12.0065625 2.97609375 -13 3 C-8.76721031 -0.60217091 -5.39370857 -0.85973543 0 0 Z " fill="#353538" transform="translate(22,31)"/>
<path d="M0 0 C9.24 0 18.48 0 28 0 C26.91910497 5.40447513 25.98080159 6.50466202 22 10 C17.47587713 12.26206143 11.86872828 11.82109194 7 11 C3.86859233 8.82118884 1.77448083 6.37473991 0 3 C0 2.01 0 1.02 0 0 Z " fill="#F1F1F2" transform="translate(89,113)"/>
<path d="M0 0 C9.24 0 18.48 0 28 0 C26.91930212 5.40348941 26.0311625 6.54471786 22 10 C17.01589668 11.66136777 10.91410036 12.33084898 6.015625 10.09375 C2.1080088 7.075987 1.62816206 4.88448618 0 0 Z " fill="#F4F4F5" transform="translate(3,113)"/>
<path d="M0 0 C1.32 0.33 2.64 0.66 4 1 C4 5.62 4 10.24 4 15 C2.35 15 0.7 15 -1 15 C-1 13.35 -1 11.7 -1 10 C-1.56170898 10.32597168 -2.12341797 10.65194336 -2.70214844 10.98779297 C-5.27268991 12.12012031 -6.97137519 12.23113622 -9.765625 12.1953125 C-10.65507813 12.18886719 -11.54453125 12.18242188 -12.4609375 12.17578125 C-13.38132812 12.15902344 -14.30171875 12.14226562 -15.25 12.125 C-16.18585938 12.11597656 -17.12171875 12.10695313 -18.0859375 12.09765625 C-20.39088657 12.07413636 -22.6953116 12.04126853 -25 12 C-25.33 10.68 -25.66 9.36 -26 8 C-25.07719238 7.97812622 -25.07719238 7.97812622 -24.13574219 7.95581055 C-21.33987146 7.88119423 -18.54517713 7.7845802 -15.75 7.6875 C-14.78191406 7.66494141 -13.81382813 7.64238281 -12.81640625 7.61914062 C-11.88183594 7.58369141 -10.94726562 7.54824219 -9.984375 7.51171875 C-9.12553711 7.48553467 -8.26669922 7.45935059 -7.38183594 7.43237305 C-4.52729432 6.91419006 -3.11604452 5.95677556 -1 4 C-0.20376178 1.90584196 -0.20376178 1.90584196 0 0 Z " fill="#111017" transform="translate(120,100)"/>
<path d="M0 0 C3.80146594 2.08638596 6.37718359 4.05823583 8.6875 7.8125 C9.1 8.4725 9.5125 9.1325 9.9375 9.8125 C10.84790138 12.24023701 10.83037008 14.24083863 10.6875 16.8125 C12.6675 16.8125 14.6475 16.8125 16.6875 16.8125 C16.6875 14.1725 16.6875 11.5325 16.6875 8.8125 C18.98769361 12.26279042 19.11882515 13.75804358 18.6875 17.8125 C15.6875 19.8125 15.6875 19.8125 12.5 19.4375 C11.571875 19.23125 10.64375 19.025 9.6875 18.8125 C9.44 17.801875 9.1925 16.79125 8.9375 15.75 C7.45936808 10.65406269 5.54364136 6.20460602 1.1875 2.9375 C-4.90537313 0.19570709 -11.31597699 -0.26172523 -17.625 2 C-22.32995291 5.17310778 -24.30590254 8.07139491 -25.5 13.5625 C-25.70689453 14.73039062 -25.70689453 14.73039062 -25.91796875 15.921875 C-26.3125 17.8125 -26.3125 17.8125 -27.3125 18.8125 C-28.99858966 18.88455511 -30.68750659 18.89636068 -32.375 18.875 C-33.29410156 18.86597656 -34.21320312 18.85695313 -35.16015625 18.84765625 C-35.87042969 18.83605469 -36.58070312 18.82445313 -37.3125 18.8125 C-36.90096263 13.84156176 -36.51649168 9.36741614 -34.3125 4.8125 C-33.23939142 8.08435553 -33.41986898 10.24197592 -34.25 13.5625 C-34.44464844 14.36171875 -34.63929687 15.1609375 -34.83984375 15.984375 C-35.07380859 16.88929687 -35.07380859 16.88929687 -35.3125 17.8125 C-33.0025 17.8125 -30.6925 17.8125 -28.3125 17.8125 C-28.395 16.78125 -28.4775 15.75 -28.5625 14.6875 C-28.16897495 8.58786173 -25.15524402 5.41992053 -20.75 1.5 C-14.47379602 -3.82568756 -7.17558187 -3.38611038 0 0 Z " fill="#2F2F33" transform="translate(69.3125,10.1875)"/>
<path d="M0 0 C5.3035228 2.70179463 9.09832298 6.29496895 11 12 C11.0890016 14.00904644 11.11760452 16.02096968 11.11352539 18.03198242 C11.11344986 19.27304245 11.11337433 20.51410248 11.11329651 21.79277039 C11.10818991 23.14700358 11.10297391 24.50123637 11.09765625 25.85546875 C11.09579083 27.24123585 11.09436751 28.62700361 11.09336853 30.01277161 C11.0895531 33.6574791 11.07973113 37.30214665 11.06866455 40.94683838 C11.0584295 44.66702738 11.05386642 48.38722285 11.04882812 52.10742188 C11.03810798 59.40496611 11.02104325 66.70247746 11 74 C10.67 74 10.34 74 10 74 C9.99120064 72.87366653 9.99120064 72.87366653 9.98222351 71.72457886 C9.92421492 64.63305419 9.85209181 57.54184436 9.76428509 50.45063591 C9.71964043 46.80532943 9.68037175 43.16013319 9.65356445 39.51464844 C9.62747189 35.99365763 9.58702858 32.47309237 9.53681374 28.95236588 C9.51211642 26.96173999 9.50211553 24.97094925 9.49235535 22.98019409 C9.47256119 21.75938141 9.45276703 20.53856873 9.43237305 19.28076172 C9.42126999 18.21042694 9.41016693 17.14009216 9.39872742 16.037323 C8.84546905 11.8228539 7.34373357 8.43021147 4.421875 5.3203125 C1.42006053 3.17415542 -0.78159637 2.0476517 -4.4375 1.25 C-10.57983045 2.5431222 -14.59051174 6.88576761 -18 12 C-18.36927046 15.0042707 -18.36927046 15.0042707 -18.4140625 18.41796875 C-18.45273438 19.67158203 -18.49140625 20.92519531 -18.53125 22.21679688 C-18.5621875 23.52712891 -18.593125 24.83746094 -18.625 26.1875 C-18.66319338 27.5228116 -18.70224591 28.85809892 -18.7421875 30.19335938 C-18.83659153 33.46209888 -18.92217017 36.73083064 -19 40 C-19.66 39.67 -20.32 39.34 -21 39 C-20.9556378 34.97910238 -20.88559102 30.95952497 -20.79248047 26.93945312 C-20.76438377 25.57401836 -20.74311323 24.20842436 -20.72900391 22.84277344 C-20.70742018 20.87145962 -20.6586454 18.90050369 -20.609375 16.9296875 C-20.58842773 15.74616699 -20.56748047 14.56264648 -20.54589844 13.34326172 C-19.76179203 8.54113595 -17.56361065 5.37408208 -13.9375 2.1875 C-9.54289675 -0.50596651 -4.99992452 -0.61642905 0 0 Z " fill="#434349" transform="translate(108,31)"/>
<path d="M0 0 C1.32 0.66 2.64 1.32 4 2 C3.67 5.63 3.34 9.26 3 13 C0.69 13 -1.62 13 -4 13 C-4.45732667 7.28341664 -3.52273754 4.51350747 0 0 Z " fill="#EAEAEB" transform="translate(38,15)"/>
<path d="M0 0 C9.57 0 19.14 0 29 0 C29 6 29 6 28 8 C27.34 8 26.68 8 26 8 C25.7525 8.61875 25.505 9.2375 25.25 9.875 C23.7301188 12.45879805 22.76757105 12.92372237 20 14 C17.421875 14.1953125 17.421875 14.1953125 14.75 14.125 C13.85796875 14.10695313 12.9659375 14.08890625 12.046875 14.0703125 C11.03367187 14.03550781 11.03367187 14.03550781 10 14 C9.67 13.34 9.34 12.68 9 12 C9.90363281 11.86722656 10.80726562 11.73445313 11.73828125 11.59765625 C12.91777344 11.42105469 14.09726562 11.24445313 15.3125 11.0625 C16.48425781 10.88847656 17.65601563 10.71445313 18.86328125 10.53515625 C22.01641403 10.07906969 22.01641403 10.07906969 25 9 C26.18391223 6.62374655 26.18391223 6.62374655 27 4 C27.33 3.01 27.66 2.02 28 1 C18.76 1 9.52 1 0 1 C0 0.67 0 0.34 0 0 Z " fill="#525256" transform="translate(3,112)"/>
<path d="M0 0 C1.32 0.33 2.64 0.66 4 1 C4 5.62 4 10.24 4 15 C2.35 15 0.7 15 -1 15 C-2.51708428 4.44191344 -2.51708428 4.44191344 0 0 Z " fill="#020205" transform="translate(120,100)"/>
<path d="M0 0 C0.99 0 1.98 0 3 0 C3.55635694 5.45229802 2.76228257 8.39693604 -0.59375 12.5546875 C-3.99687791 16.05234674 -7.46475599 16.12148819 -12.125 16.25 C-15.83829383 16.27257321 -16.78419134 16.14387244 -20 14 C-19.10796875 13.95101562 -18.2159375 13.90203125 -17.296875 13.8515625 C-15.54117188 13.73941406 -15.54117188 13.73941406 -13.75 13.625 C-12.00976562 13.52058594 -12.00976562 13.52058594 -10.234375 13.4140625 C-7.20483646 13.02622303 -5.46001956 12.75715683 -3 11 C-1.4547697 8.8445416 -1.4547697 8.8445416 -0.25 6.375 C0.17796875 5.55773437 0.6059375 4.74046875 1.046875 3.8984375 C1.36140625 3.27195312 1.6759375 2.64546875 2 2 C1.01 1.67 0.02 1.34 -1 1 C-0.67 0.67 -0.34 0.34 0 0 Z " fill="#26262A" transform="translate(116,110)"/>
<path d="M0 0 C2.125 0.375 2.125 0.375 4 1 C3.50628906 1.48210938 3.01257813 1.96421875 2.50390625 2.4609375 C1.54291016 3.40839844 1.54291016 3.40839844 0.5625 4.375 C-0.07558594 5.00148438 -0.71367188 5.62796875 -1.37109375 6.2734375 C-4.39054318 9.47390907 -4.18074902 12.01804047 -4.31640625 16.3203125 C-4.35830078 17.57714844 -4.40019531 18.83398438 -4.44335938 20.12890625 C-4.48267578 21.44761719 -4.52199219 22.76632813 -4.5625 24.125 C-4.60569512 25.46485751 -4.64930973 26.80470156 -4.69335938 28.14453125 C-4.79970981 31.42957815 -4.90173808 34.71470281 -5 38 C-5.66 37.67 -6.32 37.34 -7 37 C-6.9556378 32.97910238 -6.88559102 28.95952497 -6.79248047 24.93945312 C-6.76438377 23.57401836 -6.74311323 22.20842436 -6.72900391 20.84277344 C-6.70742018 18.87145962 -6.6586454 16.90050369 -6.609375 14.9296875 C-6.58842773 13.74616699 -6.56748047 12.56264648 -6.54589844 11.34326172 C-5.75508933 6.50008643 -3.42185223 3.42185223 0 0 Z " fill="#7D7D80" transform="translate(94,33)"/>
<path d="M0 0 C6.8875 6.525 6.8875 6.525 7.125 11.75 C7.08375 12.4925 7.0425 13.235 7 14 C8.98 14 10.96 14 13 14 C13 11.36 13 8.72 13 6 C15.30019361 9.45029042 15.43132515 10.94554358 15 15 C12 17 12 17 8.8125 16.625 C7.884375 16.41875 6.95625 16.2125 6 16 C5.62875 14.4840625 5.62875 14.4840625 5.25 12.9375 C4.45136748 10.09020145 3.38155519 7.73047968 1.875 5.1875 C0 2 0 2 0 0 Z " fill="#464649" transform="translate(73,13)"/>
<path d="M0 0 C2.6109279 1.10059187 4.63937626 2.39276682 7 4 C7 4.66 7 5.32 7 6 C7.66 6 8.32 6 9 6 C8.67 7.32 8.34 8.64 8 10 C7.5875 9.21625 7.175 8.4325 6.75 7.625 C4.83661087 4.7549163 4.17045421 4.14136352 1 3 C-2.50869414 2.75827293 -2.50869414 2.75827293 -6.25 2.875 C-7.51328125 2.89304688 -8.7765625 2.91109375 -10.078125 2.9296875 C-11.04234375 2.95289063 -12.0065625 2.97609375 -13 3 C-8.76721031 -0.60217091 -5.39370857 -0.85973543 0 0 Z " fill="#525255" transform="translate(22,31)"/>
<path d="M0 0 C1.98 0.99 1.98 0.99 4 2 C3.34 2.66 2.68 3.32 2 4 C1.793943 6.594934 1.793943 6.594934 1.9375 9.5625 C2.03268656 14.82314394 1.69485361 19.78859789 1 25 C0.67 25 0.34 25 0 25 C0 16.75 0 8.5 0 0 Z " fill="#2C2C30" transform="translate(32,80)"/>
<path d="M0 0 C1.32 0.33 2.64 0.66 4 1 C1.69 3.31 -0.62 5.62 -3 8 C-3.33 6.68 -3.66 5.36 -4 4 C-2.3125 1.6875 -2.3125 1.6875 0 0 Z " fill="#848587" transform="translate(94,33)"/>
<path d="M0 0 C0.33 0.99 0.66 1.98 1 3 C0.67 3.66 0.34 4.32 0 5 C-0.66 5 -1.32 5 -2 5 C-2.2475 5.639375 -2.495 6.27875 -2.75 6.9375 C-4 9 -4 9 -6.125 9.75 C-7.053125 9.87375 -7.053125 9.87375 -8 10 C-6.625 8 -6.625 8 -5 6 C-4.34 6 -3.68 6 -3 6 C-2.690625 5.195625 -2.38125 4.39125 -2.0625 3.5625 C-1 1 -1 1 0 0 Z " fill="#2E2E32" transform="translate(31,115)"/>
<path d="M0 0 C0.66 0.33 1.32 0.66 2 1 C-1.61328125 5.6875 -1.61328125 5.6875 -3 7 C-3.99 7 -4.98 7 -6 7 C-4.60667426 3.63279613 -3.0210714 2.0140476 0 0 Z " fill="#6D6D70" transform="translate(45,4)"/>
<path d="M0 0 C1.90318884 2.85478326 2.4619099 4.41941308 3.125 7.6875 C3.29257812 8.49574219 3.46015625 9.30398437 3.6328125 10.13671875 C3.75398438 10.75160156 3.87515625 11.36648437 4 12 C3.01 11.67 2.02 11.34 1 11 C0.67 7.37 0.34 3.74 0 0 Z " fill="#2A2A2E" transform="translate(31,39)"/>
<path d="M0 0 C2.9375 0.8125 2.9375 0.8125 6 2 C6.33 2.99 6.66 3.98 7 5 C7.66 5 8.32 5 9 5 C8.67 6.32 8.34 7.64 8 9 C7.4121875 7.8553125 7.4121875 7.8553125 6.8125 6.6875 C4.83023212 3.74827521 3.07614147 2.66277918 0 1 C0 0.67 0 0.34 0 0 Z " fill="#4C4C50" transform="translate(22,32)"/>
<path d="M0 0 C0.66 0.33 1.32 0.66 2 1 C2.625 4.0625 2.625 4.0625 3 7 C1.2925002 5.71937515 -0.37373596 4.38232443 -2 3 C-2 2.34 -2 1.68 -2 1 C-1.34 0.67 -0.68 0.34 0 0 Z " fill="#DBDBDD" transform="translate(7,116)"/>
</svg>
